<svg viewBox="0 0 1919 442" fill="currentColor" xmlns="http://www.w3.org/2000/svg" aria-hidden="true">
<path d="M0.73098 323.374C2.29041 344.661 11.3058 360.041 27.7773 369.512C44.2487 378.984 67.6888 383.72 98.0976 383.72C128.409 383.72 151.313 377.52 166.81 365.118C182.404 352.619 190.201 334.554 190.201 310.923C190.201 289.831 182.599 274.256 167.395 264.198C152.19 254.043 132.161 245.645 107.308 239.005C87.1329 233.83 73.1468 228.898 65.3496 224.211C57.5525 219.524 53.654 213.568 53.654 206.342C53.654 197.749 56.6266 191.206 62.5719 186.714C68.5172 182.125 77.8738 179.83 90.6416 179.83C107.503 179.83 118.565 182.174 123.828 186.861C129.091 191.548 132.356 198.481 133.623 207.66L134.354 218.059H182.453L181.868 207.367C179.919 190.083 171.537 175.582 156.722 163.865C141.908 152.147 119.637 146.288 89.9106 146.288C61.0612 146.288 39.278 152.342 24.5609 164.45C9.94133 176.559 2.63153 192.72 2.63153 212.933C2.63153 231.681 10.4774 247.354 26.1691 259.951C41.8608 272.45 61.7922 281.678 85.9633 287.634C109.16 293.688 123.633 298.717 129.384 302.721C135.231 306.627 138.155 313.169 138.155 322.348C138.155 331.234 135.231 338.314 129.384 343.587C123.536 348.86 112.717 351.496 96.928 351.496C80.749 351.496 69.3457 349.202 62.7181 344.612C56.0906 339.925 51.9483 331.527 50.2915 319.419L49.2681 308.726H0L0.73098 323.374Z" />
<path d="M205.698 335.677C205.698 349.836 209.255 360.919 216.37 368.927C223.583 376.934 234.547 380.937 249.264 380.937C260.765 380.937 270.755 378.398 279.235 373.321C287.714 368.145 293.416 362.921 296.339 357.648C296.827 363.019 297.217 367.315 297.509 370.538C297.899 373.76 298.63 376.592 299.702 379.033H351.163V376.983C349.409 373.663 348.044 369.415 347.069 364.239C346.192 359.064 345.754 353.693 345.754 348.127V274.891C345.754 256.435 340.881 243.106 331.134 234.904C321.485 226.604 305.452 222.454 283.036 222.454C262.471 222.454 246.34 227.385 234.645 237.247C223.046 247.11 217.247 259.707 217.247 275.037V281.189L263.445 281.336V275.916C263.445 268.007 264.81 261.66 267.539 256.875C270.365 251.992 273.923 249.551 278.211 249.551C284.449 249.551 288.737 251.309 291.076 254.824C293.416 258.34 294.585 263.222 294.585 269.471V291.589L248.68 290.857C233.67 290.564 222.754 294.323 215.932 302.135C209.109 309.947 205.698 321.128 205.698 335.677ZM256.282 332.748C256.282 325.131 256.915 319.956 258.182 317.222C259.449 314.39 261.691 313.023 264.907 313.12L294.585 313.56V330.404C294.585 339.681 291.564 346.37 285.521 350.471C279.576 354.475 273.484 356.476 267.246 356.476C263.445 356.476 260.668 354.426 258.913 350.325C257.159 346.126 256.282 340.267 256.282 332.748Z" />
<path d="M376.893 329.379C376.893 346.663 380.597 360.187 388.004 369.952C395.412 379.619 405.645 384.453 418.706 384.453C431.376 384.453 442.146 381.621 451.015 375.957C459.982 370.196 464.709 365.069 465.196 360.578H465.05L464.611 379.033H516.072V228.166H465.05V330.697C463.49 335.189 460.079 339.437 454.816 343.44C449.65 347.346 444.095 349.299 438.15 349.299C434.446 349.299 431.814 347.004 430.255 342.415C428.696 337.728 427.916 331.722 427.916 324.399V228.166H376.893V329.379Z" />
<path d="M553.206 379.033H606.275V288.952C610.369 280.262 616.314 273.133 624.111 267.567C632.006 262.001 639.754 259.218 647.356 259.218C654.081 259.218 659.296 259.755 662.999 260.83C666.8 261.904 670.406 263.368 673.818 265.224V227.287C670.894 225.92 667.677 224.797 664.169 223.918C660.758 222.942 655.056 222.454 647.064 222.454C638 222.454 629.52 225.676 621.626 232.121C613.829 238.468 608.614 245.45 605.983 253.067L606.568 228.166H553.206V379.033Z" />
<path d="M674.403 335.677C674.403 349.836 677.96 360.919 685.075 368.927C692.287 376.934 703.252 380.937 717.969 380.937C729.47 380.937 739.46 378.398 747.939 373.321C756.419 368.145 762.12 362.921 765.044 357.648C765.531 363.019 765.921 367.315 766.214 370.538C766.604 373.76 767.334 376.592 768.407 379.033H819.868V376.983C818.113 373.663 816.749 369.415 815.774 364.239C814.897 359.064 814.458 353.693 814.458 348.127V274.891C814.458 256.435 809.585 243.106 799.839 234.904C790.19 226.604 774.157 222.454 751.74 222.454C731.175 222.454 715.045 227.385 703.349 237.247C691.751 247.11 685.952 259.707 685.952 275.037V281.189L732.15 281.336V275.916C732.15 268.007 733.514 261.66 736.243 256.875C739.07 251.992 742.627 249.551 746.916 249.551C753.153 249.551 757.442 251.309 759.781 254.824C762.12 258.34 763.29 263.222 763.29 269.471V291.589L717.384 290.857C702.375 290.564 691.459 294.323 684.636 302.135C677.814 309.947 674.403 321.128 674.403 335.677ZM724.986 332.748C724.986 325.131 725.62 319.956 726.887 317.222C728.154 314.39 730.396 313.023 733.612 313.12L763.29 313.56V330.404C763.29 339.681 760.268 346.37 754.226 350.471C748.28 354.475 742.189 356.476 735.951 356.476C732.15 356.476 729.372 354.426 727.618 350.325C725.864 346.126 724.986 340.267 724.986 332.748Z" />
<path d="M848.23 379.033H900.129L899.544 370.098H899.398C901.64 372.833 906.659 375.762 914.456 378.887C922.351 381.914 931.561 383.427 942.088 383.427C957.877 383.427 971.375 376.494 982.584 362.628C993.89 348.664 999.543 329.037 999.543 303.746V301.988C999.543 277.967 994.182 258.925 983.461 244.864C972.837 230.803 959.144 223.772 942.38 223.772C931.269 223.772 921.669 225.627 913.579 229.338C905.587 232.951 900.568 236.954 898.521 241.349V134.277H848.23V379.033ZM899.106 341.39V265.81C900.665 263.564 903.979 261.562 909.047 259.804C914.213 257.949 919.622 257.021 925.275 257.021C932.975 257.021 938.628 261.22 942.234 269.618C945.937 278.016 947.789 289.001 947.789 302.574V303.746C947.789 318.686 945.937 330.209 942.234 338.314C938.628 346.321 933.413 350.325 926.591 350.325C920.158 350.325 914.213 349.202 908.755 346.956C903.394 344.71 900.178 342.854 899.106 341.39Z" />
<path d="M1026.3 379.033H1077.32V277.235C1078.88 273.329 1082.24 269.325 1087.41 265.224C1092.57 261.123 1098.52 259.072 1105.24 259.072C1109.14 259.072 1111.63 261.171 1112.7 265.37C1113.87 269.471 1114.45 274.989 1114.45 281.922V442H1165.48V271.962C1165.67 256.631 1162.26 244.571 1155.24 235.783C1148.22 226.994 1134.48 222.649 1114.01 222.747C1102.32 222.649 1093.45 225.725 1087.41 231.974C1081.36 238.224 1078 243.79 1077.32 248.672V0H1026.3V379.033Z" />
<path d="M1469.3 264.931C1469.3 305.162 1480.27 335.043 1502.2 354.572C1524.22 374.004 1550.88 383.72 1582.16 383.72C1610.53 383.72 1632.7 380.351 1648.68 373.614C1664.67 366.778 1677.05 359.65 1685.82 352.229V264.345L1581.58 264.491V294.665H1635.82V338.46C1634.75 339.046 1629.78 341.048 1620.91 344.466C1612.04 347.786 1599.56 349.446 1583.48 349.446C1566.91 349.446 1552.88 342.854 1541.38 329.672C1529.87 316.392 1524.12 295.104 1524.12 265.81V262.294C1524.12 235.636 1529.58 215.618 1540.5 202.24C1551.51 188.863 1563.6 182.174 1576.76 182.174C1594.01 182.174 1605.8 185.64 1612.13 192.573C1618.57 199.506 1624.56 209.466 1630.12 222.454L1630.85 224.504H1680.7L1680.26 220.257C1678.31 195.844 1669 177.438 1652.34 165.036C1635.77 152.537 1610.92 146.288 1577.78 146.288C1549.9 146.288 1524.86 155.955 1502.63 175.289C1480.41 194.624 1469.3 223.625 1469.3 262.294V264.931Z" />
<path d="M1698.83 266.835C1698.83 304.625 1709.21 333.578 1729.97 353.693C1750.83 373.711 1778.8 383.72 1813.89 383.72C1847.8 383.72 1873.58 377.129 1891.22 363.947C1908.86 350.764 1917.98 329.281 1918.56 299.498L1919 292.907H1866.37L1865.78 298.766C1865.88 308.238 1862.32 319.223 1855.11 331.722C1848 344.124 1834.6 350.325 1814.91 350.325C1796 350.325 1781.28 343.538 1770.76 329.965C1760.33 316.294 1755.11 295.202 1755.11 266.688V262.88C1755.11 245.596 1760.04 227.531 1769.88 208.685C1779.72 189.839 1794.78 180.416 1815.05 180.416C1828.99 180.416 1838.88 187.251 1844.73 200.922C1850.58 214.495 1857.26 225.139 1864.76 232.853L1866.08 237.98H1919L1917.68 231.535C1906.38 202.436 1894.39 180.953 1881.72 167.087C1869.05 153.221 1846.29 146.288 1813.45 146.288C1779.43 146.288 1751.8 156.101 1730.55 175.729C1709.4 195.356 1698.83 224.455 1698.83 263.027V266.835Z" />
<path d="M1235.06 264.931C1235.06 305.162 1246.03 335.043 1267.96 354.572C1289.99 374.004 1316.64 383.72 1347.93 383.72C1376.29 383.72 1398.46 380.351 1414.45 373.614C1430.43 366.778 1442.81 359.65 1451.58 352.229V264.345L1347.34 264.491V294.665H1401.58V338.46C1400.51 339.046 1395.54 341.048 1386.67 344.466C1377.8 347.786 1365.33 349.446 1349.24 349.446C1332.67 349.446 1318.64 342.854 1307.14 329.672C1295.64 316.392 1289.89 295.104 1289.89 265.81V262.294C1289.89 235.636 1295.35 215.618 1306.26 202.24C1317.28 188.863 1329.36 182.174 1342.52 182.174C1359.77 182.174 1371.56 185.64 1377.9 192.573C1384.33 199.506 1390.32 209.466 1395.88 222.454L1396.61 224.504H1446.46L1446.03 220.257C1444.08 195.844 1434.77 177.438 1418.1 165.036C1401.53 152.537 1376.68 146.288 1343.54 146.288C1315.67 146.288 1290.62 155.955 1268.4 175.289C1246.18 194.624 1235.06 223.625 1235.06 262.294V264.931Z" />
</svg>
